<?xml version="1.0" encoding="UTF-8"?><svg id="Layer_1" xmlns="http://www.w3.org/2000/svg" viewBox="0 0 436.35 117.59"><defs><style>.cls-1{fill:#fff;stroke-width:0px;}</style></defs><path class="cls-1" d="m165.94,13.5c-.61-.97-1.37-1.83-2.28-2.57-.91-.74-1.94-1.32-3.09-1.73-1.15-.41-2.36-.62-3.61-.62-2.3,0-4.25.45-5.85,1.33-1.6.89-2.91,2.09-3.91,3.58-.99,1.5-1.72,3.2-2.18,5.11-.45,1.91-.68,3.89-.68,5.92s.23,3.85.68,5.7c.46,1.84,1.18,3.5,2.18,4.98,1,1.47,2.31,2.66,3.91,3.55,1.6.89,3.55,1.33,5.85,1.33,3.12,0,5.57-.95,7.32-2.86,1.76-1.91,2.83-4.43,3.22-7.55h9.89c-.26,2.9-.93,5.53-2.02,7.87-1.08,2.35-2.52,4.34-4.29,5.99-1.78,1.65-3.86,2.91-6.25,3.77-2.39.87-5.01,1.3-7.88,1.3-3.56,0-6.76-.62-9.6-1.86-2.84-1.23-5.24-2.94-7.19-5.11-1.95-2.17-3.45-4.72-4.49-7.65-1.04-2.93-1.56-6.08-1.56-9.47s.52-6.69,1.56-9.66c1.04-2.97,2.54-5.56,4.49-7.77,1.95-2.21,4.35-3.95,7.19-5.2,2.84-1.26,6.04-1.89,9.6-1.89,2.56,0,4.98.37,7.26,1.1,2.28.74,4.32,1.81,6.12,3.22,1.79,1.41,3.28,3.15,4.45,5.24,1.17,2.08,1.91,4.47,2.22,7.15h-9.89c-.17-1.17-.56-2.24-1.17-3.22"/><path class="cls-1" d="m190.67,1.1v17.51h.2c1.17-1.95,2.66-3.37,4.48-4.26,1.82-.89,3.6-1.34,5.34-1.34,2.47,0,4.5.34,6.09,1.01,1.58.68,2.83,1.6,3.74,2.8.91,1.19,1.55,2.65,1.92,4.36.37,1.72.55,3.61.55,5.7v20.69h-9.24v-19c0-2.77-.44-4.85-1.3-6.21-.86-1.37-2.4-2.05-4.62-2.05-2.52,0-4.34.75-5.47,2.25-1.13,1.49-1.69,3.96-1.69,7.38v17.64h-9.24V1.1h9.24Z"/><path class="cls-1" d="m238.79,21.8c-1.11-1.21-2.79-1.82-5.04-1.82-1.47,0-2.7.25-3.68.75-.97.5-1.75,1.12-2.34,1.86-.59.74-1,1.52-1.23,2.34-.24.82-.38,1.56-.43,2.21h15.04c-.44-2.34-1.21-4.12-2.31-5.34m-10.44,17.7c1.39,1.35,3.38,2.02,5.99,2.02,1.87,0,3.47-.47,4.82-1.4,1.34-.93,2.17-1.92,2.47-2.96h8.14c-1.3,4.03-3.3,6.92-5.99,8.65-2.69,1.73-5.94,2.6-9.76,2.6-2.65,0-5.03-.42-7.16-1.27-2.12-.85-3.92-2.05-5.4-3.61-1.48-1.56-2.62-3.43-3.42-5.6-.81-2.17-1.21-4.55-1.21-7.16s.42-4.85,1.24-7.02c.82-2.17,1.99-4.05,3.51-5.63,1.52-1.59,3.33-2.83,5.43-3.74,2.11-.91,4.44-1.37,7-1.37,2.86,0,5.36.55,7.48,1.66,2.13,1.1,3.88,2.59,5.24,4.46,1.37,1.86,2.35,3.99,2.96,6.38.61,2.39.82,4.88.65,7.48h-24.27c.13,3,.89,5.16,2.28,6.51"/><rect class="cls-1" x="254.51" y="1.1" width="9.24" height="46.47"/><path class="cls-1" d="m277.18,39.21c.41.72.94,1.3,1.6,1.76.65.45,1.4.79,2.24,1.01.85.22,1.73.33,2.64.33.65,0,1.33-.07,2.04-.23.72-.15,1.37-.39,1.95-.72.59-.32,1.08-.76,1.46-1.3.39-.54.59-1.23.59-2.05,0-1.39-.93-2.43-2.77-3.12-1.84-.69-4.42-1.39-7.71-2.08-1.35-.3-2.66-.66-3.94-1.07-1.28-.41-2.42-.95-3.42-1.63-1-.67-1.8-1.52-2.41-2.54-.61-1.02-.91-2.27-.91-3.74,0-2.17.42-3.95,1.27-5.34.84-1.39,1.96-2.48,3.35-3.28,1.39-.8,2.95-1.37,4.69-1.69,1.74-.32,3.52-.49,5.34-.49s3.59.17,5.3.52c1.71.35,3.24.93,4.59,1.76,1.34.82,2.46,1.92,3.35,3.29.88,1.37,1.42,3.09,1.59,5.17h-8.79c-.13-1.78-.8-2.99-2.02-3.61-1.22-.63-2.65-.94-4.29-.94-.52,0-1.09.03-1.69.1-.61.07-1.16.21-1.66.43-.5.22-.92.53-1.27.94-.35.42-.52.97-.52,1.66,0,.83.3,1.5.91,2.02.61.52,1.41.94,2.38,1.27.97.32,2.09.62,3.35.88,1.25.26,2.53.54,3.83.85,1.35.3,2.66.67,3.94,1.1,1.28.44,2.41,1.01,3.41,1.72,1,.72,1.8,1.61,2.41,2.67.61,1.06.91,2.37.91,3.94,0,2.21-.44,4.06-1.33,5.57-.89,1.49-2.05,2.7-3.48,3.61-1.44.91-3.07,1.55-4.92,1.92-1.84.37-3.72.55-5.63.55s-3.86-.2-5.73-.59c-1.86-.39-3.52-1.04-4.98-1.95-1.46-.91-2.65-2.11-3.58-3.61-.93-1.49-1.44-3.37-1.53-5.63h8.79c0,1,.2,1.85.61,2.57"/><path class="cls-1" d="m323.45,21.8c-1.1-1.21-2.79-1.82-5.04-1.82-1.47,0-2.7.25-3.68.75-.98.5-1.76,1.12-2.34,1.86-.59.74-1,1.52-1.24,2.34-.24.82-.38,1.56-.43,2.21h15.03c-.44-2.34-1.2-4.12-2.31-5.34m-10.44,17.7c1.39,1.35,3.39,2.02,5.99,2.02,1.87,0,3.47-.47,4.82-1.4,1.35-.93,2.17-1.92,2.47-2.96h8.13c-1.3,4.03-3.3,6.92-5.99,8.65-2.69,1.73-5.94,2.6-9.76,2.6-2.65,0-5.04-.42-7.16-1.27-2.13-.85-3.93-2.05-5.41-3.61-1.48-1.56-2.61-3.43-3.41-5.6-.81-2.17-1.21-4.55-1.21-7.16s.41-4.85,1.24-7.02c.82-2.17,1.99-4.05,3.51-5.63,1.52-1.59,3.33-2.83,5.44-3.74,2.1-.91,4.43-1.37,7-1.37,2.86,0,5.36.55,7.48,1.66,2.12,1.1,3.87,2.59,5.24,4.46,1.36,1.86,2.35,3.99,2.96,6.38.61,2.39.83,4.88.65,7.48h-24.27c.13,3,.89,5.16,2.28,6.51"/><path class="cls-1" d="m360.18,31.1c-.39.35-.88.62-1.46.81-.59.2-1.21.36-1.88.49-.68.13-1.38.24-2.12.32-.74.09-1.47.19-2.22.32-.69.13-1.37.31-2.04.52-.68.22-1.26.51-1.76.88-.49.37-.89.84-1.2,1.4-.3.56-.45,1.27-.45,2.14s.15,1.52.45,2.08c.31.56.72,1.01,1.24,1.34.52.32,1.13.55,1.82.69.69.13,1.41.19,2.15.19,1.82,0,3.23-.3,4.22-.91,1-.61,1.74-1.34,2.22-2.18.48-.85.77-1.7.88-2.57.11-.86.16-1.56.16-2.08v-3.45Zm-21.34-6.83c.13-2.17.68-3.97,1.63-5.4.95-1.43,2.17-2.58,3.64-3.45,1.48-.86,3.13-1.48,4.98-1.85,1.84-.37,3.7-.55,5.56-.55,1.69,0,3.41.12,5.14.36,1.74.24,3.32.71,4.75,1.4,1.43.69,2.6,1.66,3.51,2.89.91,1.23,1.37,2.87,1.37,4.91v17.51c0,1.52.09,2.97.26,4.36.18,1.39.48,2.43.91,3.13h-9.37c-.17-.52-.31-1.06-.42-1.59-.11-.55-.19-1.1-.23-1.66-1.48,1.52-3.21,2.58-5.2,3.19-2,.6-4.03.91-6.12.91-1.6,0-3.1-.2-4.49-.59-1.38-.39-2.6-1-3.64-1.82-1.04-.83-1.86-1.86-2.44-3.13-.59-1.26-.88-2.75-.88-4.49,0-1.91.33-3.48,1.01-4.72.68-1.23,1.54-2.22,2.6-2.96,1.06-.74,2.27-1.29,3.64-1.66,1.37-.37,2.75-.66,4.13-.88,1.39-.21,2.76-.39,4.1-.52,1.35-.13,2.54-.32,3.58-.58,1.04-.26,1.86-.64,2.47-1.14.61-.5.89-1.22.85-2.18,0-1-.16-1.79-.49-2.37-.33-.59-.76-1.04-1.3-1.37-.54-.33-1.17-.55-1.88-.66-.72-.1-1.49-.16-2.31-.16-1.82,0-3.25.39-4.3,1.17-1.04.78-1.65,2.08-1.82,3.9h-9.24Z"/><path class="cls-1" d="m165.94,71.75c-.61-.97-1.37-1.83-2.28-2.57-.91-.74-1.94-1.31-3.09-1.73-1.15-.41-2.36-.62-3.61-.62-2.3,0-4.25.45-5.85,1.33-1.6.89-2.91,2.09-3.91,3.58-.99,1.5-1.72,3.2-2.18,5.11-.45,1.91-.68,3.89-.68,5.92s.23,3.85.68,5.7c.46,1.84,1.18,3.5,2.18,4.98,1,1.47,2.31,2.66,3.91,3.55,1.6.89,3.55,1.33,5.85,1.33,3.12,0,5.57-.95,7.32-2.86,1.76-1.91,2.83-4.43,3.22-7.55h9.89c-.26,2.9-.93,5.53-2.02,7.87-1.08,2.35-2.52,4.34-4.29,5.99-1.78,1.65-3.86,2.91-6.25,3.77-2.39.87-5.01,1.3-7.88,1.3-3.56,0-6.76-.62-9.6-1.86-2.84-1.23-5.24-2.93-7.19-5.1-1.95-2.17-3.45-4.72-4.49-7.65-1.04-2.93-1.56-6.08-1.56-9.47s.52-6.69,1.56-9.66c1.04-2.97,2.54-5.56,4.49-7.77,1.95-2.21,4.35-3.95,7.19-5.2,2.84-1.26,6.04-1.89,9.6-1.89,2.56,0,4.98.37,7.26,1.11,2.28.74,4.32,1.81,6.12,3.22,1.79,1.41,3.28,3.15,4.45,5.24,1.17,2.08,1.91,4.47,2.22,7.16h-9.89c-.17-1.18-.56-2.25-1.17-3.22"/><path class="cls-1" d="m190.34,92.97c.26,1.28.7,2.43,1.33,3.45.63,1.02,1.47,1.83,2.51,2.44,1.04.61,2.34.91,3.9.91s2.88-.3,3.94-.91c1.07-.61,1.91-1.42,2.54-2.44.62-1.02,1.07-2.17,1.33-3.45.26-1.28.39-2.59.39-3.94s-.14-2.67-.39-3.97c-.26-1.3-.71-2.45-1.33-3.45-.63-1-1.47-1.81-2.54-2.44-1.06-.63-2.38-.94-3.94-.94s-2.86.31-3.9.94c-1.04.63-1.87,1.44-2.51,2.44-.63,1-1.07,2.15-1.33,3.45-.26,1.3-.39,2.63-.39,3.97s.13,2.66.39,3.94m-8.39-11.26c.82-2.19,1.99-4.06,3.51-5.6,1.52-1.54,3.35-2.73,5.47-3.58,2.12-.85,4.51-1.27,7.15-1.27s5.05.42,7.19,1.27c2.15.85,3.98,2.04,5.5,3.58s2.69,3.41,3.52,5.6c.82,2.19,1.24,4.63,1.24,7.32s-.42,5.13-1.24,7.29c-.83,2.17-2,4.03-3.52,5.56-1.52,1.54-3.35,2.73-5.5,3.55-2.15.82-4.55,1.24-7.19,1.24s-5.03-.42-7.15-1.24c-2.13-.82-3.95-2.01-5.47-3.55-1.52-1.53-2.69-3.39-3.51-5.56-.83-2.17-1.23-4.6-1.23-7.29s.41-5.12,1.23-7.32"/><path class="cls-1" d="m227.76,72.17v6.25h.13c.43-1.05,1.02-2.01,1.76-2.89.73-.89,1.58-1.65,2.54-2.28.96-.63,1.98-1.12,3.06-1.47,1.09-.34,2.21-.52,3.39-.52.6,0,1.28.11,2.02.32v8.59c-.43-.09-.95-.17-1.56-.23-.61-.07-1.2-.1-1.76-.1-1.69,0-3.12.28-4.29.85-1.17.56-2.11,1.33-2.83,2.31-.72.98-1.22,2.12-1.53,3.42-.3,1.29-.45,2.71-.45,4.23v15.17h-9.24v-33.65h8.78Z"/><path class="cls-1" d="m265.08,98.85c1.02-.6,1.84-1.4,2.48-2.38.62-.97,1.07-2.11,1.33-3.41.26-1.3.39-2.62.39-3.97s-.14-2.66-.42-3.97c-.28-1.3-.75-2.47-1.4-3.48-.65-1.02-1.48-1.84-2.5-2.47-1.02-.62-2.26-.94-3.74-.94s-2.79.32-3.81.94c-1.02.63-1.85,1.44-2.47,2.44-.63,1-1.07,2.15-1.33,3.45-.26,1.3-.39,2.65-.39,4.03s.14,2.67.42,3.97c.29,1.3.74,2.44,1.37,3.41.63.98,1.47,1.77,2.51,2.38,1.04.61,2.3.91,3.77.91s2.79-.3,3.81-.91m-12-26.68v4.3h.13c1.13-1.82,2.56-3.14,4.3-3.97,1.73-.82,3.64-1.24,5.72-1.24,2.65,0,4.92.5,6.83,1.5,1.91,1,3.49,2.32,4.75,3.97,1.25,1.65,2.19,3.57,2.8,5.76.6,2.19.91,4.48.91,6.87,0,2.26-.31,4.43-.91,6.51-.61,2.08-1.53,3.93-2.77,5.53-1.24,1.6-2.78,2.88-4.63,3.84-1.84.95-4,1.44-6.47,1.44-2.09,0-4.01-.43-5.76-1.27-1.76-.85-3.2-2.09-4.33-3.74h-.13v15.94h-9.24v-45.42h8.78Z"/><path class="cls-1" d="m291.34,92.97c.26,1.28.7,2.43,1.33,3.45.63,1.02,1.46,1.83,2.5,2.44,1.04.61,2.35.91,3.9.91s2.87-.3,3.94-.91c1.06-.61,1.91-1.42,2.53-2.44.63-1.02,1.07-2.17,1.33-3.45.26-1.28.4-2.59.4-3.94s-.14-2.67-.4-3.97c-.26-1.3-.7-2.45-1.33-3.45-.63-1-1.47-1.81-2.53-2.44-1.07-.63-2.38-.94-3.94-.94s-2.86.31-3.9.94c-1.04.63-1.88,1.44-2.5,2.44-.63,1-1.07,2.15-1.33,3.45-.26,1.3-.39,2.63-.39,3.97s.13,2.66.39,3.94m-8.39-11.26c.82-2.19,1.99-4.06,3.51-5.6,1.52-1.54,3.34-2.73,5.47-3.58,2.12-.85,4.51-1.27,7.15-1.27s5.05.42,7.19,1.27c2.15.85,3.98,2.04,5.5,3.58,1.52,1.54,2.69,3.41,3.51,5.6.82,2.19,1.24,4.63,1.24,7.32s-.41,5.13-1.24,7.29c-.82,2.17-2,4.03-3.51,5.56-1.52,1.54-3.35,2.73-5.5,3.55-2.14.82-4.54,1.24-7.19,1.24s-5.03-.42-7.15-1.24c-2.13-.82-3.95-2.01-5.47-3.55-1.52-1.53-2.69-3.39-3.51-5.56-.83-2.17-1.24-4.6-1.24-7.29s.41-5.12,1.24-7.32"/><path class="cls-1" d="m328.69,72.17v6.25h.13c.44-1.05,1.02-2.01,1.76-2.89.74-.89,1.58-1.65,2.54-2.28.95-.63,1.97-1.12,3.06-1.47,1.08-.34,2.21-.52,3.38-.52.61,0,1.28.11,2.02.32v8.59c-.43-.09-.95-.17-1.56-.23-.61-.07-1.19-.1-1.76-.1-1.7,0-3.12.28-4.3.85-1.17.56-2.11,1.33-2.83,2.31-.72.98-1.23,2.12-1.53,3.42-.31,1.29-.45,2.71-.45,4.23v15.17h-9.24v-33.65h8.78Z"/><path class="cls-1" d="m365.91,89.35c-.39.35-.88.62-1.46.81-.58.2-1.22.36-1.89.49-.68.13-1.38.24-2.12.32-.74.09-1.47.19-2.21.32-.7.13-1.38.31-2.05.52-.67.22-1.25.51-1.75.88-.5.37-.9.84-1.21,1.4-.3.56-.45,1.27-.45,2.14s.15,1.52.45,2.08c.3.56.72,1.01,1.24,1.34.52.32,1.12.55,1.82.69.69.13,1.41.19,2.15.19,1.82,0,3.23-.3,4.23-.91.99-.61,1.74-1.34,2.21-2.18.47-.85.77-1.7.88-2.57.11-.86.16-1.56.16-2.08v-3.45Zm-21.34-6.83c.13-2.17.67-3.97,1.63-5.4.95-1.43,2.17-2.58,3.65-3.45,1.47-.86,3.13-1.48,4.98-1.85,1.84-.37,3.7-.55,5.56-.55,1.69,0,3.41.12,5.14.36,1.73.24,3.32.71,4.75,1.4,1.43.69,2.6,1.66,3.51,2.89.91,1.23,1.37,2.87,1.37,4.91v17.51c0,1.52.09,2.97.26,4.36.17,1.39.48,2.43.91,3.13h-9.37c-.17-.52-.31-1.06-.42-1.59-.11-.55-.18-1.1-.22-1.66-1.48,1.52-3.22,2.58-5.21,3.19-2,.6-4.04.91-6.12.91-1.6,0-3.1-.2-4.49-.59-1.39-.39-2.6-1-3.64-1.82-1.05-.83-1.85-1.87-2.44-3.13-.59-1.26-.88-2.75-.88-4.49,0-1.91.34-3.48,1.02-4.72.67-1.23,1.54-2.22,2.6-2.96,1.07-.74,2.28-1.29,3.65-1.66,1.37-.37,2.74-.66,4.13-.88,1.39-.21,2.76-.39,4.1-.52,1.34-.13,2.54-.32,3.58-.58,1.04-.26,1.86-.64,2.47-1.14.6-.5.89-1.22.84-2.18,0-1-.16-1.79-.49-2.37-.32-.59-.75-1.04-1.3-1.37-.54-.33-1.17-.55-1.89-.66-.72-.1-1.48-.16-2.31-.16-1.82,0-3.25.39-4.29,1.17-1.04.78-1.65,2.08-1.82,3.9h-9.24Z"/><path class="cls-1" d="m399.88,71.97v6.18h-6.76v16.66c0,1.56.26,2.6.78,3.12.52.52,1.56.78,3.12.78.52,0,1.02-.02,1.5-.06.48-.04.93-.11,1.37-.19v7.16c-.78.13-1.65.21-2.6.26-.95.04-1.88.07-2.79.07-1.44,0-2.79-.1-4.07-.29-1.28-.19-2.41-.57-3.38-1.14-.98-.56-1.75-1.37-2.31-2.4-.56-1.04-.85-2.41-.85-4.1v-19.85h-5.6v-6.18h5.6v-10.09h9.24v10.09h6.76Z"/><path class="cls-1" d="m424.74,80.05c-1.11-1.21-2.79-1.82-5.04-1.82-1.48,0-2.7.25-3.68.75-.98.5-1.76,1.12-2.35,1.86-.59.74-1,1.52-1.23,2.34-.24.82-.38,1.56-.43,2.21h15.04c-.44-2.34-1.21-4.12-2.31-5.34m-10.44,17.7c1.39,1.35,3.39,2.02,5.99,2.02,1.86,0,3.47-.47,4.81-1.4,1.35-.93,2.17-1.92,2.48-2.96h8.13c-1.3,4.03-3.3,6.92-5.99,8.65-2.69,1.73-5.95,2.6-9.76,2.6-2.64,0-5.03-.42-7.15-1.27-2.13-.85-3.92-2.05-5.4-3.61-1.48-1.56-2.62-3.43-3.42-5.6-.8-2.17-1.2-4.55-1.2-7.16s.41-4.85,1.23-7.02c.82-2.17,1.99-4.05,3.52-5.63,1.51-1.58,3.32-2.83,5.43-3.74,2.1-.91,4.43-1.37,6.99-1.37,2.86,0,5.36.55,7.48,1.66,2.13,1.1,3.87,2.59,5.24,4.46,1.37,1.86,2.35,3.99,2.96,6.38.6,2.39.83,4.88.65,7.48h-24.28c.13,3,.89,5.16,2.28,6.51"/><path class="cls-1" d="m70,66.73l12.53-15.21L43.84.17C36.65,9.59,8.11,43.39,0,53.05l.39.32-.09.11,38.03,52.34h22.5L23.45,55.23l20.83-24.37,25.72,35.87Z"/><path class="cls-1" d="m113.76,53.52l.09-.11L75.83,1.08h-23.39s38.14,50.72,38.14,50.72l-20.54,24.03-24.94-35.76-13.49,15.31,38.69,51.35c7.18-9.41,43.45-53.2,43.45-53.2"/></svg>